<svg xmlns="http://www.w3.org/2000/svg" viewBox="0 0 220 220">
  <polygon points="211.5,120.2 179.2,136.2 192.8,169.6 156.8,167.3 151.9,203.0 121.9,183.0 99.8,211.5 83.8,179.2 50.4,192.8 52.7,156.8 17.0,151.9 37.0,121.9 8.5,99.8 40.8,83.8 27.2,50.4 63.2,52.7 68.1,17.0 98.1,37.0 120.2,8.5 136.2,40.8 169.6,27.2 167.3,63.2 203.0,68.1 183.0,98.1" fill="#FFFFFF"/>
  <polygon points="203.5,119.4 173.6,134.1 186.3,164.9 153.0,162.6 148.6,195.7 121.0,177.1 100.6,203.5 85.9,173.6 55.1,186.3 57.4,153.0 24.3,148.6 42.9,121.0 16.5,100.6 46.4,85.9 33.7,55.1 67.0,57.4 71.4,24.3 99.0,42.9 119.4,16.5 134.1,46.4 164.9,33.7 162.6,67.0 195.7,71.4 177.1,99.0" fill="#F0762E" stroke="#151820" stroke-width="3"/>
  
  <g stroke="#151820" stroke-width="4.5" stroke-linejoin="round">
    <rect x="56" y="84" width="82" height="56" rx="6" fill="#FDF6E2"/>
    <path d="M138 100 h20 l8 20 v20 h-28 z" fill="#FDF6E2"/>
    <rect x="144" y="106" width="14" height="12" fill="#A8CBE4" stroke-width="3"/>
    <rect x="66" y="96" width="40" height="22" fill="#A8CBE4" stroke-width="3.5"/>
    <path d="M62 96 h48 l-4 -10 h-40 z" fill="#C6301A"/>
    <circle cx="82" cy="144" r="12" fill="#151820"/>
    <circle cx="148" cy="144" r="12" fill="#151820"/>
    <circle cx="82" cy="144" r="5" fill="#9A9A9A" stroke="none"/>
    <circle cx="148" cy="144" r="5" fill="#9A9A9A" stroke="none"/>
    <path d="M96 70 q-2 -8 4 -12 M106 70 q-2 -8 4 -12" stroke-width="3" fill="none" opacity="0.7"/>
  </g>
</svg>